<svg width="720" height="746" viewBox="0 0 720 746" fill="none" xmlns="http://www.w3.org/2000/svg">
<path fill-rule="evenodd" clip-rule="evenodd" d="M426.755 -130.339C526.01 -125.623 630.416 -88.7373 691.019 -11.9419C747.053 59.0641 709.403 159.888 725.408 248.114C738.276 319.044 786.302 381.961 775.404 453.204C763.332 532.132 724.842 607.453 662.532 659.186C597.271 713.368 510.835 758.895 426.755 742.671C345.261 726.947 319.875 623.823 250.249 579.635C174.069 531.287 41.2528 557.785 6.43092 475.913C-27.6816 395.71 83.9568 325.257 106.308 241.209C131.067 148.108 79.6084 35.6333 143.094 -37.9759C208.865 -114.236 324.689 -135.189 426.755 -130.339Z" fill="#FDC435"/>
</svg>
